<mxfile host="app.diagrams.net" agent="Mozilla/5.0 (Windows NT 10.0; Win64; x64) AppleWebKit/537.36 (KHTML, like Gecko) Chrome/133.0.0.0 Safari/537.36" version="26.0.15">
  <diagram name="PÃ¡gina-1" id="FAmnenv6DvZoh3It8bFU">
    <mxGraphModel dx="2261" dy="780" grid="1" gridSize="10" guides="1" tooltips="1" connect="1" arrows="1" fold="1" page="1" pageScale="1" pageWidth="827" pageHeight="1169" math="0" shadow="0">
      <root>
        <mxCell id="0" />
        <mxCell id="1" parent="0" />
        <mxCell id="7dgrPZYz7nwklSMEVo4a-2" style="edgeStyle=orthogonalEdgeStyle;rounded=0;orthogonalLoop=1;jettySize=auto;html=1;" edge="1" parent="1" source="7dgrPZYz7nwklSMEVo4a-1" target="7dgrPZYz7nwklSMEVo4a-5">
          <mxGeometry relative="1" as="geometry">
            <mxPoint x="340" y="180" as="targetPoint" />
            <Array as="points">
              <mxPoint x="389" y="119" />
            </Array>
          </mxGeometry>
        </mxCell>
        <mxCell id="7dgrPZYz7nwklSMEVo4a-1" value="" style="sketch=0;points=[[0,0,0],[0.25,0,0],[0.5,0,0],[0.75,0,0],[1,0,0],[0,1,0],[0.25,1,0],[0.5,1,0],[0.75,1,0],[1,1,0],[0,0.25,0],[0,0.5,0],[0,0.75,0],[1,0.25,0],[1,0.5,0],[1,0.75,0]];points=[[0,0,0],[0.25,0,0],[0.5,0,0],[0.75,0,0],[1,0,0],[0,1,0],[0.25,1,0],[0.5,1,0],[0.75,1,0],[1,1,0],[0,0.25,0],[0,0.5,0],[0,0.75,0],[1,0.25,0],[1,0.5,0],[1,0.75,0]];outlineConnect=0;fontColor=#232F3E;fillColor=#E7157B;strokeColor=#ffffff;dashed=0;verticalLabelPosition=bottom;verticalAlign=top;align=center;html=1;fontSize=12;fontStyle=0;aspect=fixed;shape=mxgraph.aws4.resourceIcon;resIcon=mxgraph.aws4.management_console;" vertex="1" parent="1">
          <mxGeometry x="80" y="80" width="78" height="78" as="geometry" />
        </mxCell>
        <mxCell id="7dgrPZYz7nwklSMEVo4a-3" value="VPC" style="shape=mxgraph.ibm.box;prType=vpc;fontStyle=0;verticalAlign=top;align=left;spacingLeft=32;spacingTop=4;fillColor=none;rounded=0;whiteSpace=wrap;html=1;strokeColor=#4376BB;strokeWidth=2;dashed=0;container=1;spacing=-4;collapsible=0;expand=0;recursiveResize=0;" vertex="1" parent="1">
          <mxGeometry x="-11" y="260" width="850" height="380" as="geometry" />
        </mxCell>
        <mxCell id="7dgrPZYz7nwklSMEVo4a-4" value="Subnet" style="sketch=0;outlineConnect=0;gradientColor=none;html=1;whiteSpace=wrap;fontSize=12;fontStyle=0;shape=mxgraph.aws4.group;grIcon=mxgraph.aws4.group_subnet;strokeColor=#7EA6E0;fillColor=none;verticalAlign=top;align=left;spacingLeft=30;fontColor=#879196;dashed=1;" vertex="1" parent="7dgrPZYz7nwklSMEVo4a-3">
          <mxGeometry x="81" y="50" width="720" height="280" as="geometry" />
        </mxCell>
        <mxCell id="7dgrPZYz7nwklSMEVo4a-16" value="&lt;font style=&quot;font-size: 20px;&quot;&gt;Launch via&lt;/font&gt;" style="text;html=1;align=center;verticalAlign=middle;whiteSpace=wrap;rounded=0;" vertex="1" parent="7dgrPZYz7nwklSMEVo4a-3">
          <mxGeometry x="331" y="150" width="120" height="30" as="geometry" />
        </mxCell>
        <mxCell id="7dgrPZYz7nwklSMEVo4a-18" value="&lt;font style=&quot;font-size: 20px;&quot;&gt;AWS CLI&lt;/font&gt;" style="text;html=1;align=center;verticalAlign=middle;whiteSpace=wrap;rounded=0;" vertex="1" parent="7dgrPZYz7nwklSMEVo4a-3">
          <mxGeometry x="331" y="180" width="120" height="30" as="geometry" />
        </mxCell>
        <mxCell id="7dgrPZYz7nwklSMEVo4a-5" value="" style="sketch=0;outlineConnect=0;fontColor=#232F3E;gradientColor=none;fillColor=#8C4FFF;strokeColor=none;dashed=0;verticalLabelPosition=bottom;verticalAlign=top;align=center;html=1;fontSize=12;fontStyle=0;aspect=fixed;pointerEvents=1;shape=mxgraph.aws4.internet_gateway;" vertex="1" parent="7dgrPZYz7nwklSMEVo4a-3">
          <mxGeometry x="361" y="-40" width="78" height="78" as="geometry" />
        </mxCell>
        <mxCell id="7dgrPZYz7nwklSMEVo4a-20" value="&lt;font style=&quot;font-size: 18px;&quot;&gt;Public subnet: 10.0.0.0/24&lt;/font&gt;" style="text;html=1;align=center;verticalAlign=middle;whiteSpace=wrap;rounded=0;" vertex="1" parent="7dgrPZYz7nwklSMEVo4a-3">
          <mxGeometry x="280" y="300" width="300" height="30" as="geometry" />
        </mxCell>
        <mxCell id="7dgrPZYz7nwklSMEVo4a-21" value="&lt;font style=&quot;font-size: 18px;&quot;&gt;Lab VPC: 10.0.0.0/16&lt;/font&gt;" style="text;html=1;align=center;verticalAlign=middle;whiteSpace=wrap;rounded=0;" vertex="1" parent="7dgrPZYz7nwklSMEVo4a-3">
          <mxGeometry x="280" y="350" width="300" height="30" as="geometry" />
        </mxCell>
        <mxCell id="7dgrPZYz7nwklSMEVo4a-22" value="&lt;font style=&quot;font-size: 18px;&quot;&gt;Bastion host&lt;/font&gt;" style="text;html=1;align=center;verticalAlign=middle;whiteSpace=wrap;rounded=0;" vertex="1" parent="7dgrPZYz7nwklSMEVo4a-3">
          <mxGeometry x="171" y="230" width="119" height="30" as="geometry" />
        </mxCell>
        <mxCell id="7dgrPZYz7nwklSMEVo4a-23" value="&lt;font style=&quot;font-size: 18px;&quot;&gt;Web server&lt;/font&gt;" style="text;html=1;align=center;verticalAlign=middle;whiteSpace=wrap;rounded=0;" vertex="1" parent="7dgrPZYz7nwklSMEVo4a-3">
          <mxGeometry x="481" y="230" width="119" height="30" as="geometry" />
        </mxCell>
        <mxCell id="7dgrPZYz7nwklSMEVo4a-24" value="&lt;span style=&quot;font-size: 18px;&quot;&gt;Internet&lt;/span&gt;&lt;div&gt;&lt;span style=&quot;font-size: 18px;&quot;&gt;gateway&lt;/span&gt;&lt;/div&gt;" style="text;html=1;align=center;verticalAlign=middle;whiteSpace=wrap;rounded=0;" vertex="1" parent="7dgrPZYz7nwklSMEVo4a-3">
          <mxGeometry x="421" y="-20" width="129" height="34" as="geometry" />
        </mxCell>
        <mxCell id="7dgrPZYz7nwklSMEVo4a-15" style="edgeStyle=orthogonalEdgeStyle;rounded=0;orthogonalLoop=1;jettySize=auto;html=1;" edge="1" parent="1" source="7dgrPZYz7nwklSMEVo4a-6" target="7dgrPZYz7nwklSMEVo4a-11">
          <mxGeometry relative="1" as="geometry" />
        </mxCell>
        <mxCell id="7dgrPZYz7nwklSMEVo4a-6" value="" style="sketch=0;outlineConnect=0;fontColor=#232F3E;gradientColor=none;fillColor=#ED7100;strokeColor=none;dashed=0;verticalLabelPosition=bottom;verticalAlign=top;align=center;html=1;fontSize=12;fontStyle=0;aspect=fixed;pointerEvents=1;shape=mxgraph.aws4.instance2;" vertex="1" parent="1">
          <mxGeometry x="170" y="390" width="100" height="100" as="geometry" />
        </mxCell>
        <mxCell id="7dgrPZYz7nwklSMEVo4a-10" style="edgeStyle=orthogonalEdgeStyle;rounded=0;orthogonalLoop=1;jettySize=auto;html=1;" edge="1" parent="1" source="7dgrPZYz7nwklSMEVo4a-5" target="7dgrPZYz7nwklSMEVo4a-6">
          <mxGeometry relative="1" as="geometry">
            <Array as="points">
              <mxPoint x="380" y="320" />
              <mxPoint x="220" y="320" />
            </Array>
          </mxGeometry>
        </mxCell>
        <mxCell id="7dgrPZYz7nwklSMEVo4a-11" value="" style="sketch=0;outlineConnect=0;fontColor=#232F3E;gradientColor=none;fillColor=#ED7100;strokeColor=none;dashed=0;verticalLabelPosition=bottom;verticalAlign=top;align=center;html=1;fontSize=12;fontStyle=0;aspect=fixed;pointerEvents=1;shape=mxgraph.aws4.instance2;" vertex="1" parent="1">
          <mxGeometry x="480" y="390" width="100" height="100" as="geometry" />
        </mxCell>
        <mxCell id="7dgrPZYz7nwklSMEVo4a-19" value="&lt;font style=&quot;font-size: 17px;&quot;&gt;AWS&lt;/font&gt;&lt;div&gt;&lt;font style=&quot;font-size: 17px;&quot;&gt;Management&amp;nbsp;&lt;/font&gt;&lt;/div&gt;&lt;div&gt;&lt;font style=&quot;font-size: 17px;&quot;&gt;Console&lt;/font&gt;&lt;/div&gt;" style="text;html=1;align=center;verticalAlign=middle;whiteSpace=wrap;rounded=0;" vertex="1" parent="1">
          <mxGeometry x="60" y="170" width="120" height="50" as="geometry" />
        </mxCell>
      </root>
    </mxGraphModel>
  </diagram>
</mxfile>
